STARTFONT 2.1
FONT -FontForge-BM receipt-Book-R-Normal--11-110-72-72-P-81-ISO10646-1
SIZE 11 72 72
FONTBOUNDINGBOX 9 11 0 -2
COMMENT "Generated by fontforge, http://fontforge.sourceforge.net"
COMMENT "copyright(c)Bitmapmania/cooz 2001 All right reserved."
STARTPROPERTIES 39
FOUNDRY "FontForge"
FAMILY_NAME "BM receipt"
WEIGHT_NAME "Book"
SLANT "R"
SETWIDTH_NAME "Normal"
ADD_STYLE_NAME ""
PIXEL_SIZE 11
POINT_SIZE 110
RESOLUTION_X 72
RESOLUTION_Y 72
SPACING "P"
AVERAGE_WIDTH 81
CHARSET_REGISTRY "ISO10646"
CHARSET_ENCODING "1"
FONTNAME_REGISTRY ""
CHARSET_COLLECTIONS "ISO10646-1"
FONT_NAME "BMreceiptA11"
FACE_NAME "BM receipt A11"
COPYRIGHT "copyright(c)Bitmapmania/cooz 2001 All right reserved."
FONT_VERSION "Macromedia Fontographer 4.1J 01.1.18"
FONT_ASCENT 9
FONT_DESCENT 2
UNDERLINE_POSITION -1
UNDERLINE_THICKNESS 1
X_HEIGHT 6
CAP_HEIGHT 8
RAW_ASCENT 818
RAW_DESCENT 181
NORM_SPACE 7
RELATIVE_WEIGHT 40
RELATIVE_SETWIDTH 50
SUPERSCRIPT_X 0
SUPERSCRIPT_Y 4
SUPERSCRIPT_SIZE 7
SUBSCRIPT_X 0
SUBSCRIPT_Y 1
SUBSCRIPT_SIZE 7
AVG_LOWERCASE_WIDTH 83
AVG_UPPERCASE_WIDTH 89
ENDPROPERTIES
CHARS 85
STARTCHAR space
ENCODING 32
SWIDTH 636 0
DWIDTH 7 0
BBX 1 1 0 0
BITMAP
00
ENDCHAR
STARTCHAR exclam
ENCODING 33
SWIDTH 272 0
DWIDTH 3 0
BBX 1 9 0 0
BITMAP
80
00
80
00
80
00
00
00
80
ENDCHAR
STARTCHAR quotedbl
ENCODING 34
SWIDTH 545 0
DWIDTH 6 0
BBX 4 3 0 6
BITMAP
90
00
90
ENDCHAR
STARTCHAR numbersign
ENCODING 35
SWIDTH 1000 0
DWIDTH 11 0
BBX 9 9 0 0
BITMAP
2200
0000
AA80
0000
2200
0000
AA80
0000
2200
ENDCHAR
STARTCHAR percent
ENCODING 37
SWIDTH 1000 0
DWIDTH 11 0
BBX 9 9 0 0
BITMAP
A080
0000
A200
0000
0800
0000
2280
0000
8280
ENDCHAR
STARTCHAR ampersand
ENCODING 38
SWIDTH 818 0
DWIDTH 9 0
BBX 7 11 0 -2
BITMAP
2A
00
22
00
AA
00
88
00
AA
00
08
ENDCHAR
STARTCHAR quotesingle
ENCODING 39
SWIDTH 272 0
DWIDTH 3 0
BBX 1 3 0 6
BITMAP
80
00
80
ENDCHAR
STARTCHAR parenleft
ENCODING 40
SWIDTH 454 0
DWIDTH 5 0
BBX 3 9 0 0
BITMAP
20
00
80
00
80
00
80
00
20
ENDCHAR
STARTCHAR parenright
ENCODING 41
SWIDTH 454 0
DWIDTH 5 0
BBX 3 9 0 0
BITMAP
80
00
20
00
20
00
20
00
80
ENDCHAR
STARTCHAR asterisk
ENCODING 42
SWIDTH 636 0
DWIDTH 7 0
BBX 5 5 0 4
BITMAP
88
00
20
00
88
ENDCHAR
STARTCHAR plus
ENCODING 43
SWIDTH 818 0
DWIDTH 9 0
BBX 7 9 0 0
BITMAP
10
00
10
00
AA
00
10
00
10
ENDCHAR
STARTCHAR comma
ENCODING 44
SWIDTH 272 0
DWIDTH 3 0
BBX 1 3 0 -2
BITMAP
80
00
80
ENDCHAR
STARTCHAR hyphen
ENCODING 45
SWIDTH 818 0
DWIDTH 9 0
BBX 7 1 0 4
BITMAP
AA
ENDCHAR
STARTCHAR period
ENCODING 46
SWIDTH 272 0
DWIDTH 3 0
BBX 1 1 0 0
BITMAP
80
ENDCHAR
STARTCHAR slash
ENCODING 47
SWIDTH 1000 0
DWIDTH 11 0
BBX 9 9 0 0
BITMAP
0080
0000
0200
0000
0800
0000
2000
0000
8000
ENDCHAR
STARTCHAR zero
ENCODING 48
SWIDTH 818 0
DWIDTH 9 0
BBX 7 9 0 0
BITMAP
28
00
82
20
82
08
82
00
28
ENDCHAR
STARTCHAR one
ENCODING 49
SWIDTH 454 0
DWIDTH 5 0
BBX 3 9 0 0
BITMAP
20
00
A0
00
20
00
20
00
20
ENDCHAR
STARTCHAR two
ENCODING 50
SWIDTH 818 0
DWIDTH 9 0
BBX 7 9 0 0
BITMAP
28
82
00
02
28
00
80
00
AA
ENDCHAR
STARTCHAR three
ENCODING 51
SWIDTH 818 0
DWIDTH 9 0
BBX 7 9 0 0
BITMAP
A8
00
02
00
28
00
02
00
A8
ENDCHAR
STARTCHAR four
ENCODING 52
SWIDTH 818 0
DWIDTH 9 0
BBX 7 9 0 0
BITMAP
82
00
82
00
AA
00
02
00
02
ENDCHAR
STARTCHAR five
ENCODING 53
SWIDTH 818 0
DWIDTH 9 0
BBX 7 9 0 0
BITMAP
AA
00
80
00
A8
02
00
02
A8
ENDCHAR
STARTCHAR six
ENCODING 54
SWIDTH 818 0
DWIDTH 9 0
BBX 7 9 0 0
BITMAP
2A
00
80
00
AA
00
82
00
28
ENDCHAR
STARTCHAR seven
ENCODING 55
SWIDTH 818 0
DWIDTH 9 0
BBX 7 9 0 0
BITMAP
AA
00
82
00
08
00
08
00
08
ENDCHAR
STARTCHAR eight
ENCODING 56
SWIDTH 818 0
DWIDTH 9 0
BBX 7 9 0 0
BITMAP
28
82
00
82
28
82
00
82
28
ENDCHAR
STARTCHAR nine
ENCODING 57
SWIDTH 818 0
DWIDTH 9 0
BBX 7 9 0 0
BITMAP
28
00
82
00
AA
00
02
00
A8
ENDCHAR
STARTCHAR colon
ENCODING 58
SWIDTH 272 0
DWIDTH 3 0
BBX 1 5 0 2
BITMAP
80
00
00
00
80
ENDCHAR
STARTCHAR semicolon
ENCODING 59
SWIDTH 272 0
DWIDTH 3 0
BBX 1 7 0 0
BITMAP
80
00
00
00
80
00
80
ENDCHAR
STARTCHAR less
ENCODING 60
SWIDTH 454 0
DWIDTH 5 0
BBX 3 5 0 1
BITMAP
20
00
80
00
20
ENDCHAR
STARTCHAR equal
ENCODING 61
SWIDTH 818 0
DWIDTH 9 0
BBX 7 5 0 2
BITMAP
AA
00
00
00
AA
ENDCHAR
STARTCHAR greater
ENCODING 62
SWIDTH 454 0
DWIDTH 5 0
BBX 3 5 0 1
BITMAP
80
00
20
00
80
ENDCHAR
STARTCHAR question
ENCODING 63
SWIDTH 818 0
DWIDTH 9 0
BBX 7 9 0 0
BITMAP
AA
00
02
00
2A
00
00
00
20
ENDCHAR
STARTCHAR at
ENCODING 64
SWIDTH 818 0
DWIDTH 9 0
BBX 7 10 0 -1
BITMAP
28
00
82
00
8A
20
82
20
8A
20
ENDCHAR
STARTCHAR A
ENCODING 65
SWIDTH 818 0
DWIDTH 9 0
BBX 7 9 0 0
BITMAP
28
00
82
00
AA
00
82
00
82
ENDCHAR
STARTCHAR B
ENCODING 66
SWIDTH 818 0
DWIDTH 9 0
BBX 7 9 0 0
BITMAP
A8
00
88
00
AA
00
82
00
AA
ENDCHAR
STARTCHAR C
ENCODING 67
SWIDTH 818 0
DWIDTH 9 0
BBX 7 9 0 0
BITMAP
2A
00
80
00
80
00
80
00
2A
ENDCHAR
STARTCHAR D
ENCODING 68
SWIDTH 818 0
DWIDTH 9 0
BBX 7 9 0 0
BITMAP
A8
00
82
00
82
00
82
00
A8
ENDCHAR
STARTCHAR E
ENCODING 69
SWIDTH 818 0
DWIDTH 9 0
BBX 7 9 0 0
BITMAP
AA
00
80
00
A8
00
80
00
AA
ENDCHAR
STARTCHAR F
ENCODING 70
SWIDTH 818 0
DWIDTH 9 0
BBX 7 9 0 0
BITMAP
AA
00
80
00
A8
00
80
00
80
ENDCHAR
STARTCHAR G
ENCODING 71
SWIDTH 818 0
DWIDTH 9 0
BBX 7 9 0 0
BITMAP
2A
00
80
00
8A
00
82
00
2A
ENDCHAR
STARTCHAR H
ENCODING 72
SWIDTH 818 0
DWIDTH 9 0
BBX 7 9 0 0
BITMAP
82
00
82
00
AA
00
82
00
82
ENDCHAR
STARTCHAR I
ENCODING 73
SWIDTH 636 0
DWIDTH 7 0
BBX 5 9 0 0
BITMAP
A8
00
20
00
20
00
20
00
A8
ENDCHAR
STARTCHAR J
ENCODING 74
SWIDTH 818 0
DWIDTH 9 0
BBX 7 9 0 0
BITMAP
0A
00
02
00
02
00
82
00
28
ENDCHAR
STARTCHAR K
ENCODING 75
SWIDTH 818 0
DWIDTH 9 0
BBX 7 9 0 0
BITMAP
82
00
88
00
A8
00
82
00
82
ENDCHAR
STARTCHAR L
ENCODING 76
SWIDTH 818 0
DWIDTH 9 0
BBX 7 9 0 0
BITMAP
80
00
80
00
80
00
80
00
AA
ENDCHAR
STARTCHAR M
ENCODING 77
SWIDTH 818 0
DWIDTH 9 0
BBX 7 9 0 0
BITMAP
82
00
AA
00
92
00
82
00
82
ENDCHAR
STARTCHAR N
ENCODING 78
SWIDTH 818 0
DWIDTH 9 0
BBX 7 9 0 0
BITMAP
82
00
A2
00
8A
00
82
00
82
ENDCHAR
STARTCHAR O
ENCODING 79
SWIDTH 818 0
DWIDTH 9 0
BBX 7 9 0 0
BITMAP
28
00
82
00
82
00
82
00
28
ENDCHAR
STARTCHAR P
ENCODING 80
SWIDTH 818 0
DWIDTH 9 0
BBX 7 9 0 0
BITMAP
A8
00
82
00
A8
00
80
00
80
ENDCHAR
STARTCHAR Q
ENCODING 81
SWIDTH 818 0
DWIDTH 9 0
BBX 7 9 0 0
BITMAP
28
00
82
00
82
00
8A
00
2A
ENDCHAR
STARTCHAR R
ENCODING 82
SWIDTH 818 0
DWIDTH 9 0
BBX 7 9 0 0
BITMAP
A8
00
82
00
A8
00
82
00
82
ENDCHAR
STARTCHAR S
ENCODING 83
SWIDTH 818 0
DWIDTH 9 0
BBX 7 9 0 0
BITMAP
28
82
00
80
28
02
00
82
28
ENDCHAR
STARTCHAR T
ENCODING 84
SWIDTH 818 0
DWIDTH 9 0
BBX 7 9 0 0
BITMAP
AA
00
10
00
10
00
10
00
10
ENDCHAR
STARTCHAR U
ENCODING 85
SWIDTH 818 0
DWIDTH 9 0
BBX 7 9 0 0
BITMAP
82
00
82
00
82
00
82
00
28
ENDCHAR
STARTCHAR V
ENCODING 86
SWIDTH 818 0
DWIDTH 9 0
BBX 7 9 0 0
BITMAP
82
00
82
00
82
00
28
00
10
ENDCHAR
STARTCHAR W
ENCODING 87
SWIDTH 818 0
DWIDTH 9 0
BBX 7 9 0 0
BITMAP
92
00
92
00
92
00
92
00
2A
ENDCHAR
STARTCHAR X
ENCODING 88
SWIDTH 818 0
DWIDTH 9 0
BBX 7 9 0 0
BITMAP
82
00
28
00
10
00
28
00
82
ENDCHAR
STARTCHAR Y
ENCODING 89
SWIDTH 818 0
DWIDTH 9 0
BBX 7 9 0 0
BITMAP
82
00
82
00
28
00
10
00
10
ENDCHAR
STARTCHAR Z
ENCODING 90
SWIDTH 818 0
DWIDTH 9 0
BBX 7 9 0 0
BITMAP
AA
00
08
00
10
00
20
00
AA
ENDCHAR
STARTCHAR underscore
ENCODING 95
SWIDTH 1000 0
DWIDTH 11 0
BBX 9 1 0 0
BITMAP
AA80
ENDCHAR
STARTCHAR a
ENCODING 97
SWIDTH 818 0
DWIDTH 9 0
BBX 7 7 0 0
BITMAP
A8
00
02
28
82
00
2A
ENDCHAR
STARTCHAR b
ENCODING 98
SWIDTH 818 0
DWIDTH 9 0
BBX 7 9 0 0
BITMAP
80
00
A8
00
82
00
82
00
A8
ENDCHAR
STARTCHAR c
ENCODING 99
SWIDTH 818 0
DWIDTH 9 0
BBX 7 7 0 0
BITMAP
2A
00
80
00
80
00
2A
ENDCHAR
STARTCHAR d
ENCODING 100
SWIDTH 818 0
DWIDTH 9 0
BBX 7 9 0 0
BITMAP
02
00
2A
00
82
00
82
00
2A
ENDCHAR
STARTCHAR e
ENCODING 101
SWIDTH 818 0
DWIDTH 9 0
BBX 7 7 0 0
BITMAP
28
00
82
28
80
00
2A
ENDCHAR
STARTCHAR f
ENCODING 102
SWIDTH 636 0
DWIDTH 7 0
BBX 5 9 0 0
BITMAP
28
00
80
00
A8
00
80
00
80
ENDCHAR
STARTCHAR g
ENCODING 103
SWIDTH 818 0
DWIDTH 9 0
BBX 7 9 0 -2
BITMAP
2A
00
82
00
2A
00
02
00
A8
ENDCHAR
STARTCHAR h
ENCODING 104
SWIDTH 818 0
DWIDTH 9 0
BBX 7 9 0 0
BITMAP
80
00
80
00
A8
00
82
00
82
ENDCHAR
STARTCHAR i
ENCODING 105
SWIDTH 272 0
DWIDTH 3 0
BBX 1 9 0 0
BITMAP
80
00
00
00
80
00
80
00
80
ENDCHAR
STARTCHAR j
ENCODING 106
SWIDTH 454 0
DWIDTH 5 0
BBX 3 11 0 -2
BITMAP
20
00
00
00
20
00
20
00
20
00
80
ENDCHAR
STARTCHAR k
ENCODING 107
SWIDTH 818 0
DWIDTH 9 0
BBX 7 9 0 0
BITMAP
80
00
82
00
A8
00
82
00
82
ENDCHAR
STARTCHAR l
ENCODING 108
SWIDTH 363 0
DWIDTH 4 0
BBX 3 9 0 0
BITMAP
80
00
80
00
80
00
80
00
20
ENDCHAR
STARTCHAR m
ENCODING 109
SWIDTH 1000 0
DWIDTH 11 0
BBX 9 7 0 0
BITMAP
AA00
0000
8880
0000
8880
0000
8880
ENDCHAR
STARTCHAR n
ENCODING 110
SWIDTH 818 0
DWIDTH 9 0
BBX 7 7 0 0
BITMAP
A8
00
82
00
82
00
82
ENDCHAR
STARTCHAR o
ENCODING 111
SWIDTH 818 0
DWIDTH 9 0
BBX 7 7 0 0
BITMAP
28
00
82
00
82
00
28
ENDCHAR
STARTCHAR p
ENCODING 112
SWIDTH 818 0
DWIDTH 9 0
BBX 7 9 0 -2
BITMAP
A8
00
82
00
82
00
A8
00
80
ENDCHAR
STARTCHAR q
ENCODING 113
SWIDTH 818 0
DWIDTH 9 0
BBX 7 9 0 -2
BITMAP
2A
00
82
00
82
00
2A
00
02
ENDCHAR
STARTCHAR r
ENCODING 114
SWIDTH 818 0
DWIDTH 9 0
BBX 7 7 0 0
BITMAP
8A
00
A0
00
80
00
80
ENDCHAR
STARTCHAR s
ENCODING 115
SWIDTH 818 0
DWIDTH 9 0
BBX 7 7 0 0
BITMAP
2A
00
80
28
02
00
A8
ENDCHAR
STARTCHAR t
ENCODING 116
SWIDTH 636 0
DWIDTH 7 0
BBX 5 9 0 0
BITMAP
80
00
A8
00
80
00
80
00
28
ENDCHAR
STARTCHAR u
ENCODING 117
SWIDTH 818 0
DWIDTH 9 0
BBX 7 7 0 0
BITMAP
82
00
82
00
82
00
2A
ENDCHAR
STARTCHAR v
ENCODING 118
SWIDTH 818 0
DWIDTH 9 0
BBX 7 7 0 0
BITMAP
82
00
82
00
28
00
10
ENDCHAR
STARTCHAR w
ENCODING 119
SWIDTH 818 0
DWIDTH 9 0
BBX 7 7 0 0
BITMAP
92
00
92
00
92
00
2A
ENDCHAR
STARTCHAR x
ENCODING 120
SWIDTH 818 0
DWIDTH 9 0
BBX 7 7 0 0
BITMAP
82
00
28
00
28
00
82
ENDCHAR
STARTCHAR y
ENCODING 121
SWIDTH 818 0
DWIDTH 9 0
BBX 7 9 0 -2
BITMAP
82
00
82
00
2A
00
02
00
28
ENDCHAR
STARTCHAR z
ENCODING 122
SWIDTH 818 0
DWIDTH 9 0
BBX 7 7 0 0
BITMAP
AA
00
08
00
20
00
AA
ENDCHAR
ENDFONT
